<svg width="560" height="420" viewBox="0 0 560 420" fill="none" xmlns="http://www.w3.org/2000/svg">
  <defs>
    <linearGradient id="cover" x1="70" y1="60" x2="460" y2="360" gradientUnits="userSpaceOnUse">
      <stop offset="0" stop-color="#5C6BFF"/>
      <stop offset="1" stop-color="#9A6BFF"/>
    </linearGradient>
    <linearGradient id="pages" x1="150" y1="90" x2="460" y2="330" gradientUnits="userSpaceOnUse">
      <stop offset="0" stop-color="#F7F7FF"/>
      <stop offset="1" stop-color="#E7EDFF"/>
    </linearGradient>
    <filter id="glow" x="0" y="0" width="560" height="420" filterUnits="userSpaceOnUse">
      <feGaussianBlur stdDeviation="12" result="blur"/>
      <feColorMatrix in="blur" type="matrix" values="0 0 0 0 0.36 0 0 0 0 0.45 0 0 0 0 1 0 0 0 0.6 0"/>
      <feBlend in="SourceGraphic"/>
    </filter>
  </defs>
  <rect width="560" height="420" rx="48" fill="#F6F7FB"/>
  <g filter="url(#glow)">
    <path d="M120 120C120 104.536 132.536 92 148 92H310C329.33 92 345 107.67 345 127V313C345 323.046 336.046 332 326 332H160C138.909 332 121 315.091 121 294V124C121 122.895 120.895 121.894 120 120Z" fill="url(#pages)"/>
    <path d="M335 118C335 100.327 349.327 86 367 86H412C434.091 86 452 103.909 452 126V298C452 316.778 436.778 332 418 332H367C349.327 332 335 317.673 335 300V118Z" fill="url(#cover)"/>
    <path d="M147 104H302C314.15 104 324 113.85 324 126V302C324 312.046 315.046 321 305 321H168C150.327 321 136 306.673 136 289V126C136 113.85 145.85 104 158 104Z" fill="#FFFFFF" fill-opacity="0.7"/>
    <path d="M365 128H418C427.389 128 435 135.611 435 145V290C435 299.389 427.389 307 418 307H365C355.611 307 348 299.389 348 290V145C348 135.611 355.611 128 365 128Z" fill="#2A2A5C" fill-opacity="0.25"/>
    <path d="M182 150H292" stroke="#5A66E6" stroke-width="6" stroke-linecap="round"/>
    <path d="M182 182H274" stroke="#5A66E6" stroke-width="6" stroke-linecap="round"/>
    <path d="M182 214H258" stroke="#5A66E6" stroke-width="6" stroke-linecap="round"/>
    <path d="M195 257L240 280L285 255" stroke="#5A66E6" stroke-width="6" stroke-linecap="round" stroke-linejoin="round"/>
    <circle cx="395" cy="168" r="16" fill="#E6F0FF"/>
    <circle cx="395" cy="168" r="8" fill="#5A66E6"/>
  </g>
  <path d="M110 350C140 328 170 324 200 340C230 356 260 356 290 336C320 316 350 316 380 332C410 348 440 350 470 338" stroke="#9AA4FF" stroke-width="6" stroke-linecap="round" stroke-dasharray="8 12"/>
  <circle cx="90" cy="100" r="10" fill="#9AA4FF"/>
  <circle cx="480" cy="90" r="6" fill="#9AA4FF"/>
  <circle cx="500" cy="130" r="4" fill="#C5C9FF"/>
</svg>
